<?xml version="1.0" standalone="no"?>
<!DOCTYPE svg PUBLIC "-//W3C//DTD SVG 20010904//EN"
 "http://www.w3.org/TR/2001/REC-SVG-20010904/DTD/svg10.dtd">
<svg version="1.0" xmlns="http://www.w3.org/2000/svg"
 width="223.000000pt" height="226.000000pt" viewBox="0 0 223.000000 226.000000"
 preserveAspectRatio="xMidYMid meet">

<g transform="translate(0.000000,226.000000) scale(0.100000,-0.100000)"
fill="#000000" stroke="none">
<path d="M1015 2180 c-208 -63 -379 -143 -506 -236 -130 -95 -295 -275 -414
-448 l-40 -59 1 -181 c2 -389 90 -642 340 -976 l66 -88 122 -41 c401 -133 662
-132 1079 6 l108 36 72 96 c232 307 317 547 333 937 4 107 3 172 -5 199 -13
47 -110 186 -216 307 -169 195 -403 339 -706 436 -132 43 -132 43 -234 12z
m180 -400 c3 -5 -1 -76 -10 -156 -14 -135 -14 -166 0 -152 3 2 12 74 21 159 9
85 18 156 20 158 2 2 19 -8 39 -23 43 -33 44 -44 11 -221 -15 -80 -21 -134
-15 -139 5 -6 9 -8 9 -5 0 29 54 287 62 296 15 18 59 16 86 -3 l23 -16 -20
-15 c-26 -17 -39 -64 -92 -328 -23 -115 -44 -212 -45 -214 -2 -2 -24 14 -48
35 l-44 39 -1 81 c-1 72 -4 85 -32 129 -17 27 -35 58 -39 70 -6 13 -9 15 -9 5
-1 -9 -17 -40 -37 -70 -34 -54 -35 -56 -29 -130 l6 -75 -51 -44 c-28 -24 -52
-42 -54 -40 -1 2 -26 119 -54 259 -46 227 -54 257 -77 277 l-25 22 22 15 c28
20 72 21 87 2 6 -7 22 -73 36 -146 13 -73 27 -135 30 -138 15 -15 13 17 -10
139 -33 177 -33 182 10 215 20 15 37 25 40 23 2 -3 11 -74 20 -159 16 -151 19
-169 31 -158 5 5 -7 144 -22 256 -5 41 -3 46 37 83 l42 38 38 -30 c21 -17 41
-34 44 -39z m-50 -387 c32 -48 32 -90 0 -134 -14 -19 -28 -34 -30 -34 -14 0
-55 74 -55 100 0 26 41 105 55 105 2 0 16 -17 30 -37z m-778 -159 c-22 -115 4
-163 82 -150 20 3 75 21 123 41 100 40 139 44 168 15 26 -26 25 -65 -5 -175
-56 -203 -20 -307 127 -360 l63 -23 -70 -22 c-75 -23 -220 -37 -278 -26 -34 6
-97 54 -97 73 0 5 27 7 60 5 40 -3 60 -1 60 7 0 6 -19 11 -47 11 -59 0 -112
26 -135 65 l-17 31 64 -4 c44 -3 65 -1 65 7 0 6 -19 11 -47 11 -56 0 -108 27
-125 65 -15 33 -9 37 33 25 45 -13 102 -13 94 0 -3 6 -20 10 -36 10 -68 0
-119 39 -135 104 -6 26 -5 28 12 21 39 -16 124 -33 129 -25 6 10 -19 20 -48
20 -11 0 -40 9 -63 20 -51 25 -79 75 -69 123 7 32 96 210 102 204 1 -2 -3 -35
-10 -73z m1547 -31 c46 -90 53 -130 32 -171 -19 -37 -55 -58 -126 -73 -31 -7
-48 -15 -43 -20 8 -8 81 7 126 26 24 10 23 -21 -3 -63 -21 -34 -71 -62 -112
-62 -13 0 -30 -5 -38 -11 -11 -8 -1 -9 40 -6 30 3 63 8 73 12 27 11 21 -20
-12 -57 -24 -27 -36 -32 -90 -36 -33 -2 -61 -9 -61 -14 0 -6 26 -9 65 -6 36 2
65 1 65 -3 0 -3 -10 -19 -22 -34 -27 -35 -75 -55 -133 -55 -26 0 -45 -5 -45
-11 0 -7 21 -10 60 -7 33 1 60 -1 60 -5 0 -19 -64 -67 -97 -73 -58 -11 -203 3
-278 26 l-70 22 65 24 c84 30 133 80 148 151 13 57 6 115 -27 233 -26 93 -26
125 -1 150 28 28 68 25 167 -15 145 -58 184 -58 209 2 15 34 11 77 -13 168
l-5 20 15 -20 c8 -11 31 -53 51 -92z m-814 -9 c0 -28 20 -22 36 11 9 19 20 35
25 35 5 0 9 -25 9 -55 0 -72 15 -105 84 -190 31 -38 59 -82 63 -97 6 -32 11
-33 39 -10 50 42 56 65 49 165 -7 91 -6 95 16 111 13 9 34 16 47 16 l23 0 -20
-26 c-28 -36 -27 -80 5 -189 42 -146 34 -234 -28 -292 -28 -26 -105 -62 -134
-63 -11 0 -46 -18 -77 -40 -31 -23 -73 -48 -92 -56 -41 -17 -60 -10 -154 57
-30 22 -64 39 -75 39 -31 0 -118 44 -143 71 -50 55 -56 145 -18 284 31 110 32
154 4 189 l-20 26 23 0 c13 0 34 -7 46 -16 21 -15 22 -21 20 -120 l-3 -105 39
-36 38 -35 19 42 c10 23 37 63 60 88 56 64 75 106 84 181 7 58 9 63 21 46 8
-10 14 -24 14 -31z m-77 -100 c-19 -38 -94 -133 -104 -134 -13 0 12 85 36 127
14 22 37 50 52 61 28 20 28 20 31 1 2 -11 -5 -36 -15 -55z m230 23 c43 -56 81
-158 59 -157 -10 1 -87 100 -106 137 -9 18 -16 41 -16 53 0 17 3 19 20 10 10
-6 30 -25 43 -43z m-251 -628 c90 -19 108 -33 108 -83 l0 -43 -67 23 c-97 33
-172 32 -250 -6 -35 -16 -79 -32 -99 -36 -32 -6 -36 -5 -31 12 3 11 8 31 11
46 5 22 13 27 48 33 24 4 70 17 103 30 106 41 101 40 177 24z m431 -19 c42
-16 84 -30 94 -30 25 0 39 -11 47 -37 3 -13 9 -32 12 -43 8 -29 -21 -26 -126
15 -109 42 -174 45 -272 11 l-68 -23 0 43 c0 41 1 43 44 59 113 43 172 44 269
5z m-388 -94 l70 -24 72 24 c99 33 166 32 255 -6 39 -17 89 -33 112 -37 38 -6
65 -25 66 -47 0 -16 -94 2 -165 32 -108 46 -141 48 -243 17 l-88 -27 -85 27
c-99 31 -133 29 -248 -17 -77 -31 -161 -48 -161 -32 1 21 28 41 62 48 20 4 65
20 100 36 81 37 155 39 253 6z"/>
<path d="M1102 1123 c-6 -16 -14 -38 -17 -51 -4 -12 -10 -20 -15 -17 -5 3 -12
-7 -16 -22 -4 -15 -19 -51 -35 -78 -52 -94 -48 -183 12 -226 26 -18 34 -19 59
-9 22 9 33 9 50 0 49 -26 104 35 104 115 0 41 -9 67 -51 145 -28 52 -54 112
-58 133 -9 44 -19 47 -33 10z m83 -161 c51 -85 59 -154 22 -198 -24 -28 -29
-30 -97 -28 -64 1 -75 4 -91 25 -30 39 -25 108 14 189 17 38 35 69 39 70 3 0
14 -20 24 -45 12 -33 15 -62 11 -108 -5 -61 -5 -61 9 -28 19 46 18 91 -5 149
-17 42 -18 56 -9 93 l11 43 17 -50 c10 -27 35 -78 55 -112z"/>
<path d="M1075 663 c-4 -21 -11 -43 -17 -50 -14 -17 -1 -51 28 -70 20 -13 29
-14 47 -4 39 21 47 44 32 87 -8 22 -14 47 -15 57 0 13 -8 17 -34 17 -31 0 -34
-3 -41 -37z m74 -25 c11 -47 10 -53 -10 -74 -43 -45 -77 1 -58 77 11 40 17 49
35 49 19 0 24 -8 33 -52z"/>
</g>
</svg>
